<?xml version="1.0" encoding="UTF-8"?>
<svg version="1.1" xmlns="http://www.w3.org/2000/svg" width="500" height="500">
<path d="M0 0 C165 0 330 0 500 0 C500 165 500 330 500 500 C335 500 170 500 0 500 C0 335 0 170 0 0 Z " fill="#000000" transform="translate(0,0)"/>
<path d="M0 0 C0.33 0.66 0.66 1.32 1 2 C0.69964844 2.82757813 0.39929688 3.65515625 0.08984375 4.5078125 C-3.96676184 17.50639817 -1.38624153 32.77945703 4 45 C7.54725356 51.72328292 12.02734534 57.29963978 17 63 C17 63.66 17 64.32 17 65 C17.58007812 65.25652344 18.16015625 65.51304687 18.7578125 65.77734375 C21.20722028 67.11299643 22.86753726 68.62924308 24.875 70.5625 C43.12607599 87.02717377 67.55372991 95.54948677 90.10223389 104.29415894 C104.70550634 109.96769458 119.02901394 115.88049272 133 123 C135.7706464 115.76239309 136.24119215 108.59036739 135 101 C132.658946 97.5869897 129.78283099 96.49126057 126 95 C124.76797974 94.44614676 123.53760365 93.88862657 122.30859375 93.328125 C112.00649233 88.80492604 112.00649233 88.80492604 101 90 C102.24976756 86.34683329 102.67098753 85.21934164 106 83 C114.19195874 82.22698429 121.70354127 82.83108801 129.546875 85.33203125 C133.13060599 86.30785609 136.30833073 86.20896241 140 86 C140.33 85.01 140.66 84.02 141 83 C138.20251159 82.06750386 136.45679119 81.86523848 133.5625 81.875 C132.80066406 81.87242187 132.03882813 81.86984375 131.25390625 81.8671875 C129.04684141 81.99723985 127.12030724 82.39143801 125 83 C125.63772866 77.47301825 129.80362643 74.01027101 133.8125 70.625 C143.10862368 65.81596632 156.6279874 69.18013653 166.37890625 71.24609375 C172.81248301 72.58555472 178.89434053 73.14032349 185.4375 73.0625 C186.16904297 73.05798828 186.90058594 73.05347656 187.65429688 73.04882812 C189.43623419 73.03718148 191.21812863 73.01925191 193 73 C186.84078725 80.77335126 180.72659172 83.28884035 171 85 C171.61746094 85.46148437 172.23492187 85.92296875 172.87109375 86.3984375 C183.23639069 94.38145158 191.18621348 103.18548849 197 115 C197 115.66 197 116.32 197 117 C197.7621582 116.69408936 198.52431641 116.38817871 199.30957031 116.07299805 C202.27986327 114.88137544 205.25048037 113.69056533 208.22134399 112.50036621 C209.57525439 111.95786516 210.92907504 111.41514005 212.2828064 110.87219238 C219.71785938 107.89088679 227.15786652 104.92527401 234.62890625 102.03515625 C267.97605176 89.1231881 300.44081971 75.52986812 316.75 41.4375 C322.29533812 28.63507953 322.6241883 14.46127084 319 1 C322.82240024 4.35208254 324.85379243 8.01212237 327.0625 12.5 C327.58855835 13.56142212 327.58855835 13.56142212 328.12524414 14.64428711 C336.01482486 31.08168619 337.96942552 51.64311617 332 69 C324.69559637 89.6556762 311.8379556 102.70733909 292.27734375 112.1796875 C279.75893814 117.71719832 266.35027284 121.40220441 253.1875 125.0625 C224.91596784 132.85553195 224.91596784 132.85553195 201 149 C201.52722656 148.72800781 202.05445313 148.45601562 202.59765625 148.17578125 C216.75563769 141.24642773 231.59581358 137.59973927 247.0703125 134.9296875 C277.27630281 129.67932017 310.29101278 121.22389327 329.99609375 95.94921875 C335.81995931 87.3780326 338.92895138 78.08273669 341 68 C345.29788433 72.29788433 345.19326697 78.84848571 345.375 84.625 C345.11293672 99.95570194 339.0116385 114.76969933 328.40234375 125.8203125 C312.70485034 140.06291628 291.37681827 142.92231092 271.16027832 144.6496582 C255.49130147 146.00884862 240.20723221 147.82054045 225 152 C223.80503906 152.31710937 222.61007812 152.63421875 221.37890625 152.9609375 C212.93563604 155.47778493 202.96149375 159.38235304 198 167 C198.46148437 166.67386719 198.92296875 166.34773437 199.3984375 166.01171875 C204.70348044 162.45754967 209.81633047 160.50038545 216 159 C217.22388428 158.65791504 218.44776855 158.31583008 219.70874023 157.96337891 C225.85371813 156.61123785 232.01652256 156.79193475 238.27161026 156.88023567 C240.49441076 156.91083208 242.71694135 156.92733256 244.93991089 156.94029236 C251.2544189 156.97967219 257.56859975 157.04453848 263.8828125 157.11645508 C267.76409214 157.15969449 271.64526111 157.18746507 275.52672958 157.20675468 C276.98808097 157.21717015 278.44940521 157.23338715 279.91061783 157.25605965 C297.83613334 157.53364796 314.64734262 154.50446467 329 143 C332.39842976 139.64532685 334.96814145 136.32833123 337 132 C337.66 132 338.32 132 339 132 C339.79650666 144.47860441 337.43140704 154.29454076 329.140625 163.875 C319.16901036 173.77382913 306.50582712 175.27706719 293.08203125 175.32128906 C284.82062783 175.21165064 277.28669905 173.61643327 269.31689453 171.58203125 C248.16658417 166.26882367 225.02759308 162.87678974 205.234375 174.40234375 C202.92795949 175.901874 202.92795949 175.901874 201.32731628 178.06452942 C198.17925764 180.68255557 195.44710844 180.5841051 191.52856445 180.56518555 C190.40820549 180.58292778 190.40820549 180.58292778 189.26521301 180.60102844 C186.79760282 180.63390502 184.33109606 180.63687234 181.86328125 180.63671875 C180.14177503 180.64703747 178.42027312 180.65810104 176.69877625 180.6698761 C173.08821306 180.68931388 169.47803717 180.69272931 165.86743164 180.6862793 C161.25805601 180.68029849 156.65070513 180.7244183 152.04174519 180.78216839 C148.48383873 180.81929608 144.92641351 180.82406059 141.36833763 180.81989479 C139.67036561 180.8227543 137.97237226 180.8367301 136.27459145 180.86237144 C121.36221475 181.0638347 121.36221475 181.0638347 115.69604492 176.59301758 C115.07863937 175.97759598 114.46123383 175.36217438 113.82511902 174.72810364 C105.22578816 166.58587577 90.34650549 166.57964641 79.296875 166.8125 C69.33620414 167.16602869 59.82273765 169.20930518 50.17358398 171.52929688 C32.7186031 175.7233986 14.20945147 178.30526101 -2.1875 169.375 C-9.5563776 164.61861796 -15.38333235 158.29547055 -18.390625 149.97265625 C-19.67082669 143.7275698 -19.28307616 137.33776073 -19 131 C-18.40574219 131.74378906 -17.81148438 132.48757813 -17.19921875 133.25390625 C-16.47347656 134.16011719 -15.74773437 135.06632813 -15 136 C-14.47019531 136.66902344 -13.94039062 137.33804688 -13.39453125 138.02734375 C-9.17566669 143.12123208 -4.73905039 146.72473274 1 150 C1.66386719 150.38027344 2.32773438 150.76054687 3.01171875 151.15234375 C14.84618323 157.12593058 28.84464288 157.43228799 41.796875 157.22265625 C43.24740492 157.21192848 44.69794817 157.20288799 46.14849854 157.19541931 C49.91847243 157.1729492 53.68805434 157.13403453 57.45782471 157.0894165 C63.50121905 157.01845027 69.54459581 156.96350948 75.58829498 156.92706108 C77.67096165 156.91065576 79.75313562 156.88110718 81.83563232 156.85035706 C92.52256974 156.7688134 102.59783285 157.48411963 112.4375 161.875 C113.57058594 162.36742187 114.70367187 162.85984375 115.87109375 163.3671875 C118.93207858 164.96455536 121.39300356 166.74872457 124 169 C116.97712545 160.31381305 106.23321001 155.42960761 95.57519531 152.67089844 C93.87437935 152.22779621 92.17913939 151.76263887 90.49072266 151.27441406 C84.20107472 149.46606755 78.05546827 148.27119323 71.5625 147.5 C70.5916748 147.3774585 69.62084961 147.25491699 68.62060547 147.12866211 C63.04679577 146.43930459 57.46795169 145.83687109 51.87890625 145.28515625 C28.11281864 142.93782907 5.13329246 140.47901084 -12 122 C-12.56976563 121.38769531 -13.13953125 120.77539062 -13.7265625 120.14453125 C-24.18826061 107.56366865 -26.18960917 91.76232146 -25 76 C-24.29942507 72.68856151 -23.37876674 70.10222517 -22 67 C-21.67 67 -21.34 67 -21 67 C-20.87044922 67.98226562 -20.87044922 67.98226562 -20.73828125 68.984375 C-18.01719276 86.65896811 -9.09145349 100.71530797 5.1953125 111.38671875 C26.66799449 126.14879963 52.05533836 131.42574553 77.28125 135.95703125 C92.24441351 138.68990297 106.47124872 142.95763632 120 150 C101.47709635 132.71195659 71.62440973 126.04974471 47.875 119.375 C26.27474911 113.20425255 5.21087829 103.2136048 -6.4375 83 C-15.67825958 66.14015031 -18.43089011 45.13222181 -13.4375 26.375 C-10.21238335 16.98658212 -5.61211773 8.17203108 0 0 Z " fill="#DFA6ED" transform="translate(90,130)"/>
<path d="M0 0 C-0.66 0.33 -1.32 0.66 -2 1 C-3.78515625 0.3984375 -3.78515625 0.3984375 -6.0625 -0.625 C-12.84423364 -3.46295492 -19.84724377 -5.40166961 -26.90869141 -7.40625 C-28.79865085 -7.94283433 -30.68656353 -8.48661505 -32.57421875 -9.03125 C-34.84957243 -9.68663643 -37.1269937 -10.33487998 -39.40625 -10.9765625 C-41.87096943 -11.67847173 -44.32913648 -12.40368401 -46.78125 -13.1484375 C-60.96156653 -17.38493732 -75.48434674 -20.00028545 -90.02740479 -22.64001465 C-91.91549657 -22.98457869 -93.80226704 -23.33635957 -95.68896484 -23.68847656 C-130.68845812 -30.18421414 -165.51070417 -32.65766444 -201.07104492 -32.33294678 C-204.60290723 -32.30534638 -208.13470626 -32.29710916 -211.66665936 -32.28923321 C-245.58591348 -32.29370443 -245.58591348 -32.29370443 -279.3125 -29.0625 C-281.90746116 -28.69727006 -284.50251234 -28.33267915 -287.09765625 -27.96875 C-288.30309082 -27.79730469 -289.50852539 -27.62585938 -290.75048828 -27.44921875 C-294.57857749 -26.92001633 -298.40886438 -26.48522815 -302.25 -26.0625 C-329.17083582 -22.70101781 -356.10923917 -16.23453762 -381.83691406 -7.69970703 C-385.57585287 -6.49024895 -389.35041367 -5.40450046 -393.125 -4.3125 C-398.79627089 -2.66566644 -404.4176272 -0.92845606 -410 1 C-376.55935932 -36.94682631 -299.71351534 -47.34573678 -252 -53 C-250.93233398 -53.13132324 -249.86466797 -53.26264648 -248.76464844 -53.39794922 C-164.11384622 -63.46064045 -72.11148616 -45.68895688 0 0 Z " fill="#DCA4EB" transform="translate(455,370)"/>
<path d="M0 0 C10.47014043 3.36331523 19.57206699 5.61810652 30.60327148 5.59985352 C31.61639404 5.59824219 32.6295166 5.59663086 33.67333984 5.5949707 C43.76987843 5.42952016 52.17239956 3.53914279 60.29077148 -2.77514648 C56.26112492 6.07041915 47.37259427 14.60127438 38.484375 18.59204102 C35.9817835 19.31399062 34.72567563 19.15404496 32.22045898 18.52172852 C31.4313916 18.32450195 30.64232422 18.12727539 29.8293457 17.92407227 C25.29544828 16.67526651 20.79251152 15.33440438 16.29077148 13.97485352 C-6.30329542 7.28630639 -29.00922764 1.92881639 -52.51928711 -0.04174805 C-56.29959011 -0.38401105 -59.47228255 -0.68930697 -62.70922852 -2.77514648 C-44.73457395 -16.25613741 -19.11127147 -6.14445501 0 0 Z " fill="#D8A1E6" transform="translate(354.709228515625,312.775146484375)"/>
<path d="M0 0 C0.99 0.99 0.99 0.99 2 2 C-4.27421793 3.20797158 -10.52775812 4.24008591 -16.87329102 4.98754883 C-42.06515063 7.96247254 -67.11992234 13.29497088 -90.90625 22.21484375 C-95.45031496 23.36807236 -98.48446905 22.72347244 -102.67578125 20.72265625 C-110.84503771 15.57905033 -118.76702612 9.41415193 -122 0 C-121.443125 0.39832031 -120.88625 0.79664063 -120.3125 1.20703125 C-119.549375 1.73683594 -118.78625 2.26664062 -118 2.8125 C-117.2575 3.33457031 -116.515 3.85664063 -115.75 4.39453125 C-108.39074256 8.69091592 -102.14336825 9.5520907 -93.75 9.5 C-92.69949463 9.49572998 -91.64898926 9.49145996 -90.56665039 9.48706055 C-74.03106322 9.13385871 -58.66737019 3.46560382 -43.21875 -1.98046875 C-30.6008068 -5.84199447 -11.67895288 -6.97174965 0 0 Z " fill="#DAA3E8" transform="translate(206,309)"/>
<path d="M0 0 C0.76441406 -0.01417969 1.52882812 -0.02835938 2.31640625 -0.04296875 C4.4375 0.1875 4.4375 0.1875 7.4375 2.1875 C7.1075 3.5075 6.7775 4.8275 6.4375 6.1875 C0.64851581 6.39424944 -3.99182723 5.77912079 -9.5625 4.1875 C-9.2325 3.1975 -8.9025 2.2075 -8.5625 1.1875 C-5.75163603 0.11875392 -2.9866621 0.02526787 0 0 Z " fill="#171118" transform="translate(223.5625,210.8125)"/>
</svg>
